<!DOCTYPE svg PUBLIC "-//W3C//DTD SVG 1.1//EN" "http://www.w3.org/Graphics/SVG/1.1/DTD/svg11.dtd">
<!-- Uploaded to: SVG Repo, www.svgrepo.com, Transformed by: SVG Repo Mixer Tools -->
<svg fill="#ff1493" width="800px" height="800px" viewBox="0 0 1069 1069" style="fill-rule:evenodd;clip-rule:evenodd;stroke-linejoin:round;stroke-miterlimit:2;" version="1.1" xml:space="preserve" xmlns="http://www.w3.org/2000/svg" xmlns:serif="http://www.serif.com/" xmlns:xlink="http://www.w3.org/1999/xlink">
<g id="SVGRepo_bgCarrier" stroke-width="0"/>
<g id="SVGRepo_tracerCarrier" stroke-linecap="round" stroke-linejoin="round"/>
<g id="SVGRepo_iconCarrier"> <rect height="1066.67" id="Speaker-alt1" style="fill:none;" width="1066.67" x="1.411" y="0.592"/> <g> <path d="M836.305,880.062l-58.926,-58.926c-12.196,-12.195 -31.999,-12.195 -44.194,0c-12.196,12.196 -12.196,31.999 -0,44.194l58.925,58.926c12.196,12.196 31.999,12.196 44.195,-0c12.195,-12.196 12.195,-31.998 -0,-44.194Zm-558.926,44.194l58.926,-58.926c12.195,-12.195 12.195,-31.998 -0,-44.194c-12.196,-12.195 -31.999,-12.195 -44.195,0l-58.925,58.926c-12.196,12.196 -12.196,31.998 -0,44.194c12.195,12.196 31.998,12.196 44.194,-0Z" style="fill-opacity:0.5;"/> <path d="M904.766,280.408c-0,-109.306 -88.61,-197.916 -197.915,-197.917c-0.004,0 -344.211,0 -344.211,0c-109.306,0 -197.916,88.61 -197.917,197.917c0,146.98 0,360.054 0,507.034c0.001,109.306 88.61,197.916 197.915,197.916c0.004,0 344.211,0 344.211,0c109.306,0.001 197.917,-88.609 197.917,-197.916l-0,-507.034Zm-62.5,-0.002l-0,507.036c-0.001,74.79 -60.629,135.417 -135.417,135.416c-104.769,0 -239.44,0 -344.209,0c-74.788,0.001 -135.415,-60.626 -135.417,-135.414c0,-0.004 0,-507.036 0,-507.036c0.002,-74.79 60.629,-135.417 135.417,-135.417c104.769,0 239.44,0 344.209,0c74.788,0 135.416,60.627 135.417,135.415Zm-307.521,578.259c-18.254,-0 -33.074,-14.82 -33.074,-33.073c0,-18.254 14.82,-33.074 33.074,-33.074c18.253,0 33.073,14.82 33.073,33.074c-0,18.253 -14.82,33.073 -33.073,33.073Zm-31.25,-126.669l-0,10.262c-0,17.248 14.002,31.25 31.25,31.25c17.247,0 31.25,-14.002 31.25,-31.25l-0,-10.262c136.472,-15.529 242.641,-131.526 242.641,-272.125c-0,-151.164 -122.727,-273.891 -273.891,-273.891c-151.165,0 -273.892,122.727 -273.892,273.891c0,140.599 106.169,256.596 242.642,272.125Zm31.25,-483.516c116.67,0 211.391,94.721 211.391,211.391c-0,116.67 -94.721,211.392 -211.391,211.392c-116.67,-0 -211.392,-94.722 -211.392,-211.392c0,-116.67 94.722,-211.391 211.392,-211.391Zm-0,98.729c-62.18,0 -112.663,50.482 -112.663,112.662c0,62.18 50.483,112.663 112.663,112.663c62.18,-0 112.662,-50.483 112.662,-112.663c-0,-62.18 -50.482,-112.662 -112.662,-112.662Zm-0,62.5c27.685,0 50.162,22.477 50.162,50.162c-0,27.686 -22.477,50.163 -50.162,50.163c-27.686,-0 -50.163,-22.477 -50.163,-50.163c0,-27.685 22.477,-50.162 50.163,-50.162Z"/> </g> </g>
</svg>